<svg version="1.2" baseProfile="tiny" width="100%" height="100%" viewBox="0 0 400 600" preserveAspectRatio="xMinYMin meet">
  <g>
    <path class="shp0" d="M10 600s0-50 60-70 70-50 70-50l60-180 60 180s10 30 70 50 60 70 60 70" fill="#74453d" stroke="#000" stroke-width="6"></path>
  </g>
  <g>
    <path class="jersey" d="M80 610s10-30 10-90l20-10s10 80 90 80 90-80 90-80l20 10c0 60 10 90 10 90H80z" fill="#0d435e" stroke="#000" stroke-width="6"></path>
    <path
      class="pinstripes"
      d="M95 610v-92.45M105 610v-97.95m10 2.95v95m10-60v62.05M135 565v45m10-35v35m10-30v30m10-25v25m10-20v20m10-20v20m10-20v20m110 0v-92.45M295 610v-97.95M285 515v95m-10-60v62.05M265 565v45m-10-35v35m-10-30v30m-10-25v25m-10-20v20m-10-20v20m-10-20v20"
      fill="none"
      stroke="#cccccc"
      stroke-width="2"></path>
    <path class="outline" d="M90 520c0 60-10 90-10 90m230-90c0 60 10 90 10 90M110 510s10 80 90 80 90-80 90-80" fill="none" stroke="#000" stroke-width="16"></path>
    <path class="stripe-accent" d="M90 520c0 60-10 90-10 90m230-90c0 60 10 90 10 90m-210-98s15 78 90 78 90-78 90-78" fill="none" stroke="#cccccc" stroke-width="8"></path>
    <path class="stripe-primary" d="M86 522c0 60-10 88-10 88m238-88c0 60 10 88 10 88M114 510s11 76 86 76 86-76 86-76" fill="none" stroke="#0d435e" stroke-width="4"></path>
    <path class="stripe-secondary" d="M94 518c0 60-10 92-10 92m222-92c0 60 10 92 10 92m-210-96s12 80 94 80 94-80 94-80" fill="none" stroke="#f0494a" stroke-width="4"></path>
  </g>
  <g transform="translate(32 290.5999984741211) scale(1.13 1.13) translate(-2.6460176991150424 -3.9575222994373935) translate(10.95 -3)">
    <path d="M43 13S23 3 13 3 3 23 3 33s3 20 13 30 27-10 27-10V13z" fill="#74453d" stroke="#000" stroke-width="5.3097345132743365"></path>
  </g>
  <g transform="translate(322 290.5999984741211) scale(-1.13 1.13) translate(-43.35398230088496 -3.9575222994373935) translate(10.95 -3)">
    <path d="M43 13S23 3 13 3 3 23 3 33s3 20 13 30 27-10 27-10V13z" fill="#74453d" stroke="#000" stroke-width="5.3097345132743365"></path>
  </g>
  <g transform="scale(0.91 1) translate(19.78021978021977 0)">
    <path class="head" d="M200 100c100 0 150 60 150 200 0 70-30 150-40 160s-60 40-110 40-100-30-110-40-40-90-40-160c0-140 50-200 150-200z" fill="#74453d" stroke="#000" stroke-width="6.282722513089005"></path>
    <path class="faceShave" d="M200 410c30 0 50 10 50 10 30 0 90-15 90-120h10c0 70-30 150-40 160s-60 40-110 40-100-30-110-40-40-90-40-160h10c0 105 60 120 90 120 0 0 20-10 50-10z" fill="rgba(0,0,0,0)"></path>
    <path class="headShave" d="M60 300H50c0-140 50-200 150-200s150 60 150 200h-10v-10c0-5-10-20-15-25s-5-55-15-65c-40-40-60 0-110 0s-70-40-110 0c-10 10-10 60-15 65s-15 20-15 25v10z" fill="rgba(0,0,0,0)"></path>
  </g>
  <g>
    <path d="M170 235s15 0 30 5c15-5 30-5 30-5m-75-15s35 0 45 5c10-5 45-5 45-5" fill="none" stroke="#000" stroke-width="2"></path>
  </g>
  <g transform="scale(0.91 1) translate(19.78021978021977 0)">
    <path
      fill-rule="evenodd"
      class="shp0"
      d="M200 410c55 0 55 15 55 30 0 0 5 40-5 55-5 5-35 15-50 15s-46.67-10-50-15c-10-15-5-55-5-55 0-15 0-30 55-30zm-45 30c0 20 5 30 25 30 10 0 10-10 20-10s10 10 20 10c20 0 25-10 25-30s-15-20-45-20-45 0-45 20z"
      fill="#272421"
      stroke="#000"></path>
  </g>
  <g transform="translate(-129.7551040649414 -22) rotate(3 269.7551040649414 332)">
    <style></style>
    <g id="eye9" stroke="#000" stroke-width="5">
      <path id="Shape 10" d="M240 340c0-4-6-20 24-20 20 0 36 8 36 12s-12 12-20 12c-4 0-40 0-40-4z" fill="#fff"></path>
      <path id="Shape 10" d="M268 340c-3.32 0-6-3.58-6-8s2.68-8 6-8 6 3.58 6 8-2.68 8-6 8z" fill="#000"></path>
    </g>
  </g>
  <g transform="translate(-9.755104064941406 -22) rotate(-3 269.7551040649414 332) scale(-1 1) translate(-539.5102081298828 0)">
    <style></style>
    <g id="eye9" stroke="#000" stroke-width="5">
      <path id="Shape 10" d="M240 340c0-4-6-20 24-20 20 0 36 8 36 12s-12 12-20 12c-4 0-40 0-40-4z" fill="#fff"></path>
      <path id="Shape 10" d="M268 340c-3.32 0-6-3.58-6-8s2.68-8 6-8 6 3.58 6 8-2.68 8-6 8z" fill="#000"></path>
    </g>
  </g>
  <g transform="translate(97 252.65039563179016) rotate(7 43 12.349604368209839)">
    <path d="M83 13C83 3 73 3 73 3 48-2 17.46 8.36 3 18c40-5 50 5 75 5 0 0 5 0 5-10z" fill="#272421" stroke="#000"></path>
  </g>
  <g transform="translate(217 252.65039563179016) rotate(-7 43 12.349604368209839) scale(-1 1) translate(-86 0)">
    <path d="M83 13C83 3 73 3 73 3 48-2 17.46 8.36 3 18c40-5 50 5 75 5 0 0 5 0 5-10z" fill="#272421" stroke="#000"></path>
  </g>
  <g transform="translate(0 5)">
    <style></style>
    <path id="closed" d="M170 440l10-10h40l10 10" fill="none" stroke="#000" stroke-width="5"></path>
  </g>
  <g transform="translate(0 12.5) scale(0.91 0.91) translate(19.78021978021977 35.35714285714285)">
    <path class="nose" d="M180 380s10-5 20-5 20 5 20 5m-20-5v-40" fill="#74453d" stroke="#000" stroke-width="5.4945054945054945"></path>
  </g>
  <g transform="scale(0.91 1) translate(19.78021978021977 0)">
    <path d="M200 95c120 0 140 90 140 115-20 0-20 5-25 0s-15-15-50-15c-15 0-40 5-65 5s-50-5-65-5c-35 0-45 10-50 15s-5 0-25 0c0-25 25-115 140-115z" fill="#272421" stroke="#000" stroke-width="4.18848167539267"></path>
  </g>
</svg>
