<?xml version="1.0" encoding="UTF-8" standalone="no"?>
<!DOCTYPE svg PUBLIC "-//W3C//DTD SVG 1.1//EN" "http://www.w3.org/Graphics/SVG/1.1/DTD/svg11.dtd">
<svg width="100%" height="100%" viewBox="0 0 517 374" version="1.1" xmlns="http://www.w3.org/2000/svg" xmlns:xlink="http://www.w3.org/1999/xlink" xml:space="preserve" xmlns:serif="http://www.serif.com/" style="fill-rule:evenodd;clip-rule:evenodd;">
    <g transform="matrix(1,0,0,1,-247.565,-309.115)">
        <path d="M261.486,311.176L749.766,311.176C756.286,311.176 761.626,315.26 761.626,320.245L761.626,671.148C761.626,676.133 756.286,680.216 749.766,680.216L261.486,680.216C254.966,680.216 249.626,676.133 249.626,671.148L249.626,320.245C249.626,315.26 254.966,311.176 261.486,311.176ZM276.146,562.571L431.876,562.571C436.806,562.571 440.866,566.631 440.866,571.561L440.866,652.301C440.866,657.241 436.826,661.281 431.876,661.281L276.146,661.281C271.206,661.281 267.156,657.231 267.156,652.301L267.156,571.561C267.156,566.611 271.206,562.571 276.146,562.571ZM657.436,562.571L734.946,562.571C739.886,562.571 743.926,566.621 743.926,571.561L743.926,652.301C743.926,657.231 739.876,661.281 734.946,661.281L657.436,661.281C654.966,661.281 652.716,660.271 651.086,658.641C649.403,656.962 648.456,654.679 648.456,652.301L648.456,571.561C648.456,566.611 652.496,562.571 657.436,562.571ZM467.266,562.571L622.996,562.571C627.946,562.571 631.986,566.621 631.986,571.561L631.986,652.301C631.986,657.231 627.936,661.281 622.996,661.281L467.266,661.281C464.806,661.281 462.556,660.271 460.926,658.651C459.235,656.972 458.281,654.685 458.276,652.301L458.276,571.561C458.276,566.611 462.326,562.571 467.266,562.571ZM579.706,446.351C577.322,446.355 575.036,447.31 573.356,449.001C571.726,450.631 570.716,452.871 570.716,455.331L570.716,536.081C570.716,541.021 574.756,545.061 579.706,545.061L735.446,545.061C740.376,545.061 744.426,541.011 744.426,536.081L744.426,455.331C744.426,450.411 740.366,446.351 735.446,446.351L579.706,446.351ZM275.316,446.351L353.916,446.351C358.866,446.351 362.906,450.381 362.906,455.331L362.906,536.081C362.906,541.021 358.866,545.061 353.916,545.061L275.316,545.061C270.366,545.061 266.326,541.021 266.326,536.081L266.326,455.331C266.326,450.381 270.366,446.351 275.316,446.351ZM389.116,446.351L544.846,446.351C549.776,446.351 553.836,450.411 553.836,455.331L553.836,536.081C553.836,541.011 549.786,545.061 544.846,545.061L389.116,545.061C384.186,545.061 380.126,541.011 380.126,536.081L380.126,455.331C380.126,450.391 384.166,446.351 389.116,446.351ZM276.146,330.111C271.206,330.111 267.156,334.161 267.156,339.101L267.156,419.841C267.156,424.781 271.196,428.821 276.146,428.821L431.876,428.821C436.806,428.821 440.866,424.771 440.866,419.841L440.866,339.101C440.866,334.171 436.806,330.111 431.876,330.111L276.146,330.111ZM657.436,330.111C655.056,330.111 652.772,331.062 651.096,332.751C649.466,334.371 648.456,336.621 648.456,339.101L648.456,419.841C648.456,424.761 652.506,428.821 657.436,428.821L734.946,428.821C739.896,428.821 743.926,424.781 743.926,419.841L743.926,339.101C743.926,334.151 739.896,330.111 734.946,330.111L657.436,330.111ZM467.266,330.111C462.336,330.111 458.276,334.161 458.276,339.101L458.276,419.841C458.276,424.781 462.316,428.821 467.266,428.821L622.996,428.821C627.946,428.821 631.986,424.781 631.986,419.841L631.986,339.101C631.986,334.151 627.946,330.111 622.996,330.111L467.266,330.111Z" style="fill:white;stroke:white;stroke-width:1px;"/>
    </g>
</svg>
