<svg version="1.2" baseProfile="tiny" width="100%" height="100%" viewBox="0 0 400 600" preserveAspectRatio="xMinYMin meet"><g><path class="shp0" d="M10 600s0-50 60-70 70-50 70-50l60-180 60 180s10 30 70 50 60 70 60 70" fill="#74453d" stroke="#000" stroke-width="6"></path></g><g><path class="football" d="M100 500s70 90 100 90 100-90 100-90 30 10 60 10c0 0 30 10 30 40s10 60 10 60H0s10-30 10-60 30-40 30-40c30 0 60-10 60-10" fill="#0d435e" stroke="#000" stroke-width="6"></path>
<path class="shoulderpads" d="M370 560s-61 7.89-70-10M30 560s61 7.89 70-10" fill="none" stroke="#000" stroke-width="3"></path>
    <path class="football" d="M100 500s70 90 100 90 100-90 100-90 30 10 60 10c0 0 30 10 30 40s10 60 10 60H0s10-30 10-60 30-40 30-40c30 0 60-10 60-10" stroke="#000" stroke-width="6" fill-opacity="0"></path>

    <path class="collar-outline" d="M100 500s70 90 100 90 100-90 100-90" fill="none" stroke="#000" stroke-width="16"></path><path class="collar-accent" d="M100 500s70 90 100 90 100-90 100-90" fill="none" stroke="#cccccc" stroke-width="12"></path><path class="collar-secondary" d="M100 500s70 90 100 90 100-90 100-90" fill="none" stroke="#f0494a" stroke-width="6"></path>

</g><g transform="translate(32 293.29999923706055) scale(0.88 0.88) translate(3.1363636363636362 4.322727376764471) translate(9.09 -3)"><path d="M43 8S3-12 3 28c0 45 40 30 40 30V8z" fill="#74453d" stroke="#000" stroke-width="6.818181818181818"></path></g><g transform="translate(322 293.29999923706055) scale(-0.88 0.88) translate(-49.13636363636363 4.322727376764471) translate(9.09 -3)"><path d="M43 8S3-12 3 28c0 45 40 30 40 30V8z" fill="#74453d" stroke="#000" stroke-width="6.818181818181818"></path></g><g transform="scale(0.922 1) translate(16.919739696312355 0)"><path class="head" d="M200 100c100 0 150 60 150 200 0 20-20 120-25 130-4.47 8.94-105 70-105 70h-40s-98.29-56.58-105-70c-5-10-25-110-25-130 0-140 50-200 150-200z" fill="#74453d" stroke="#000" stroke-width="6.243496357960457"></path><path class="faceShave" d="M200 410c30 0 50 10 50 10 30 0 90-15 90-120h10c0 20-20 120-25 130-4.47 8.94-105 70-105 70h-40s-98.29-56.58-105-70c-5-10-25-110-25-130h10c0 105 60 120 90 120 0 0 20-10 50-10z" fill="rgba(0,0,0,0)"></path><path class="headShave" d="M60 300H50c0-140 50-200 150-200s150 60 150 200h-10v-10c0-5-10-20-15-25s-5-55-15-65c-40-40-60 0-110 0s-70-40-110 0c-10 10-10 60-15 65s-15 20-15 25v10z" fill="rgba(0,0,0,0)"></path></g><g></g><g transform="translate(147 424.5) scale(0.88 0.88) translate(0.40909090909090906 1.4318181818181819)"><path class="shp0" d="M0 20l6-10-6-9" fill="none" stroke="#000" stroke-width="2.272727272727273"></path></g><g transform="translate(247 424.5) scale(-0.88 0.88) translate(-6.409090909090908 1.4318181818181819)"><path class="shp0" d="M0 20l6-10-6-9" fill="none" stroke="#000" stroke-width="2.272727272727273"></path></g><g><path d="M155 220s35 0 45 5c10-5 45-5 45-5" fill="none" stroke="#000" stroke-width="2"></path></g><g transform="scale(0.922 1) translate(0 0)"></g><g transform="translate(109.23478126525879 289.9689464569092) rotate(-2 30.76521873474121 20.03105354309082)"><style></style><g id="eye2" stroke="#000" stroke-width="5"><path id="Shape 10" d="M55.37 34.72S58.4 2.3 28.53 5.07C-1.35 7.83 7.21 35.16 7.21 35.16" fill="#fff"></path><path id="Shape 10" d="M30.74 28.97c-3.31.3-6.22-2.12-6.53-5.43a5.985 5.985 0 015.42-6.52 5.987 5.987 0 016.53 5.42c.3 3.3-2.12 6.22-5.42 6.53z" fill="#000"></path></g></g><g transform="translate(229.2347812652588 289.9689464569092) rotate(2 30.76521873474121 20.03105354309082) scale(-1 1) translate(-61.53043746948242 0)"><style></style><g id="eye2" stroke="#000" stroke-width="5"><path id="Shape 10" d="M55.37 34.72S58.4 2.3 28.53 5.07C-1.35 7.83 7.21 35.16 7.21 35.16" fill="#fff"></path><path id="Shape 10" d="M30.74 28.97c-3.31.3-6.22-2.12-6.53-5.43a5.985 5.985 0 015.42-6.52 5.987 5.987 0 016.53 5.42c.3 3.3-2.12 6.22-5.42 6.53z" fill="#000"></path></g></g><g transform="translate(101.88888692855835 250.625) rotate(-5 38.11111307144165 14.375)"><path d="M71 25c8-8 0-16 0-16S43 1 35 1C25 1 7 5 7 5s-12 8 0 20c16 8 16-4 36-4s24 8 28 4z" fill="#272421" stroke="#000"></path></g><g transform="translate(221.88888692855835 250.625) rotate(5 38.11111307144165 14.375) scale(-1 1) translate(-76.2222261428833 0)"><path d="M71 25c8-8 0-16 0-16S43 1 35 1C25 1 7 5 7 5s-12 8 0 20c16 8 16-4 36-4s24 8 28 4z" fill="#272421" stroke="#000"></path></g><g transform="translate(0 0)"><style></style><path id="smile" d="M170 430s10 20 30 20 30-20 30-20h-60z" fill="#fff" stroke="#000" stroke-width="5"></path></g><g transform="translate(140.8432159423828 292.35200119018555) scale(0.9 0.9) translate(6.572976006401908 8.627555423312714)"><path d="M50 50s-20 60 9 55c0 0 29 5 9-55" fill="#74453d" stroke="#000" stroke-width="5.555555555555555"></path></g><g transform="scale(0.922 1) translate(16.919739696312355 0)"><defs><linearGradient id="grd1" gradientUnits="userSpaceOnUse" x1="200" y1="100" x2="200" y2="310"><stop offset="0" stop-color="rgba(0,0,0,.3)"></stop><stop offset="1" stop-color="rgba(0,0,0,0)"></stop></linearGradient></defs><style></style><g id="cornrows"><path id="Short Fade" d="M60 310H50v-10c0-140 50-200 150-200s150 60 150 200v10h-10v-20c0-5-10-20-15-25s-5-45-15-55-60 0-110 0-100-10-110 0-10 50-15 55-15 20-15 25v20z" fill="url(#grd1)" stroke="none"></path><path id="cornrows" d="M195 200h-10V100h10v100zm10 0h10V100h-10v100m20 0h10V100h-10v100m20 0h10v-95h-10v95zm20-5h10v-85h-10v85zm20 0h10v-75h-10v75zm20-5h10v-50h-10v50zm20 5h10v-20h-10v20m-150 5h-10V100h10v100zm-20 0h-10v-95.13h10V200zm-20-5v-85.15h-10V195h10zm-20 0v-75h-10v75h10zm-20-5H85v-50h10v50zm-20 5H65v-20h10v20z" fill="#272421" stroke="#000" stroke-width="4.1623309053069715"></path></g></g><g transform="scale(0.922 1) translate(0 0)"></g><g transform="scale(0.922 1) translate(0 0)"></g></svg>
