<svg  version="1.2" viewBox="0 0 400 600" baseProfile="tiny" width="100%" height="100%" preserveAspectRatio="xMinYMin meet"><g ><path class="shp0" d="M10 600s0-50 60-70 70-50 70-50l60-180 60 180s10 30 70 50 60 70 60 70" fill="#a67358" stroke="#000" stroke-width="6"/></g><g ><path class="football" d="M100 500s70 90 100 90 100-90 100-90 30 10 60 10c0 0 30 10 30 40s10 60 10 60H0s10-30 10-60 30-40 30-40c30 0 60-10 60-10" fill="#1763B2" stroke="#000" stroke-width="6"/><path class="shoulderpads" d="M370 560s-61 7.89-70-10M30 560s61 7.89 70-10" fill="none" stroke="#000" stroke-width="3"/><path class="collar-outline" d="M100 500s70 90 100 90 100-90 100-90" fill="none" stroke="#000" stroke-width="16"/><path class="collar-accent" d="M100 500s70 90 100 90 100-90 100-90" fill="none" stroke="#FFF" stroke-width="12"/><path class="collar-secondary" d="M100 500s70 90 100 90 100-90 100-90" fill="none" stroke="#000000" stroke-width="6"/></g><g transform=" translate(32.0 293.29999923706055) scale(1.19 1.19) translate(-3.6722689075630246 -5.061344659628987) translate(13.120000000000001 -3)"><path class="ear" d="M43 8S3-12 3 28c0 45 40 30 40 30V8z" fill="#a67358" stroke="#000" stroke-width="6"/></g><g transform=" translate(322.0 293.29999923706055) scale(-1.19 1.19) translate(-42.32773109243698 -5.061344659628987) translate(13.120000000000001 -3)"><path class="ear" d="M43 8S3-12 3 28c0 45 40 30 40 30V8z" fill="#a67358" stroke="#000" stroke-width="6"/></g><g transform=" scale(0.896 1) translate(23.21428571428571 0.0)"><path d="M200 100c100 0 150 60 150 200 0 20-20 130-20 130l-80 50c-20 20-40 20-50 20s-30 0-50-20l-80-50S50 320 50 300c0-140 50-200 150-200z" fill="#a67358" stroke="#000" stroke-width="6"/><path class="faceShave" d="M200 410c30 0 50 10 50 10 30 0 90-15 90-120h10c0 20-20 130-20 130l-80 50c-20 20-40 20-50 20s-30 0-50-20l-80-50S50 320 50 300h10c0 105 60 120 90 120 0 0 20-10 50-10z" fill="rgba(0,0,0,0)"/><path class="headShave" d="M60 300H50c0-140 50-200 150-200s150 60 150 200h-10v-10c0-5-10-20-15-25s-5-55-15-65c-40-40-60 0-110 0s-70-40-110 0c-10 10-10 60-15 65s-15 20-15 25v10z" fill="rgba(0,0,0,0)"/></g><g transform=" scale(0.896 1) translate(23.21428571428571 0.0)"><path d="M340 300c0 105-85 140-85 140s-5 30-15 30c-30 0-30-10-40-10s-10 10-40 10c-10 0-15-30-15-30s-85-35-85-140H50c0 105 20 140 20 140s55 80 130 80 130-80 130-80 20-35 20-140h-10zM150 425c-5-5 25-20 35-20 5 0 10 5 15 5s10-5 15-5c10 0 40 15 35 20s-5-5-50-5-45 10-50 5z" fill="#272421" stroke="#000"/></g><g transform=" translate(109.23478126525879 289.9689464569092) rotate(2.0 30.76521873474121 20.03105354309082)"><style></style><g id="eye2" stroke="#000" stroke-width="5"><path id="Shape 10" d="M55.37 34.72S58.4 2.3 28.53 5.07C-1.35 7.83 7.21 35.16 7.21 35.16" fill="#fff"/><path id="Shape 10" d="M30.74 28.97c-3.31.3-6.22-2.12-6.53-5.43a5.985 5.985 0 015.42-6.52 5.987 5.987 0 016.53 5.42c.3 3.3-2.12 6.22-5.42 6.53z" fill="#000"/></g></g><g transform=" translate(229.2347812652588 289.9689464569092) rotate(-2.0 30.76521873474121 20.03105354309082) scale(-1 1) translate(-61.53043746948242 0.0)"><style></style><g id="eye2" stroke="#000" stroke-width="5"><path id="Shape 10" d="M55.37 34.72S58.4 2.3 28.53 5.07C-1.35 7.83 7.21 35.16 7.21 35.16" fill="#fff"/><path id="Shape 10" d="M30.74 28.97c-3.31.3-6.22-2.12-6.53-5.43a5.985 5.985 0 015.42-6.52 5.987 5.987 0 016.53 5.42c.3 3.3-2.12 6.22-5.42 6.53z" fill="#000"/></g></g><g transform=" translate(104.99999749660492 255.3333330154419) rotate(-0.59 35.00000250339508 9.666666984558105)"><path d="M67 17c3-3 0-12 0-12H39C29 5 3 1 3 1S0 14 3 17s26 0 36 0 25 3 28 0z" fill="#272421" stroke="#000"/></g><g transform=" translate(224.99999749660492 255.3333330154419) rotate(0.59 35.00000250339508 9.666666984558105) scale(-1 1) translate(-70.00000500679016 0.0)"><path d="M67 17c3-3 0-12 0-12H39C29 5 3 1 3 1S0 14 3 17s26 0 36 0 25 3 28 0z" fill="#272421" stroke="#000"/></g><g transform=" translate(0.0 5.0) scale(-1 1) translate(-400.0 0.0)"><style></style><path id="smile-closed" d="M170 430s10 10 30 10 30-10 30-10" fill="none" stroke="#000" stroke-width="5"/></g><g transform=" translate(140.8432159423828 292.35200119018555) scale(-0.74 0.74) translate(-139.09838413547826 27.281729311556433)"><path d="M50 50s-20 60 9 55c0 0 29 5 9-55" fill="#a67358" stroke="#000" stroke-width="5"/></g><g transform=" scale(-1 1) translate(-399.3873748779297 0.0) scale(0.896 1) translate(23.178731577736986 0.0)"><path class="hair" d="M60 310H50s-.19-5 0-10C60 40-10 145 200 80c34.77-10.76 43.79-21.21 65 0 5 5 5 45 5 45s3.04-26.26 10-25c110 20 60-20 70 200 .23 4.99 0 10 0 10h-10v-20c0-5-10-20-15-25s-5-65-15-75-60 10-110 10-100-20-110-10-10 70-15 75-15 20-15 25v20z" fill="#272421" stroke="#000" stroke-width="4"/></g></svg>