<svg version="1.2" viewBox="0 0 400 600" baseProfile="tiny" width="100%" height="100%" preserveAspectRatio="xMinYMin meet"><g><path class="shp0" d="M10 600s0-50 60-70 70-50 70-50l60-180 60 180s10 30 70 50 60 70 60 70" fill="#ad6453" stroke="#000" stroke-width="6"></path></g><g><path class="football" d="M100 500s70 90 100 90 100-90 100-90 30 10 60 10c0 0 30 10 30 40s10 60 10 60H0s10-30 10-60 30-40 30-40c30 0 60-10 60-10" fill="#004A36" stroke="#000" stroke-width="6"></path><path class="shoulderpads" d="M370 560s-61 7.89-70-10M30 560s61 7.89 70-10" fill="none" stroke="#000" stroke-width="3"></path><path class="collar-outline" d="M100 500s70 90 100 90 100-90 100-90" fill="none" stroke="#000" stroke-width="16"></path><path class="collar-accent" d="M100 500s70 90 100 90 100-90 100-90" fill="none" stroke="#FFF" stroke-width="12"></path><path class="collar-secondary" d="M100 500s70 90 100 90 100-90 100-90" fill="none" stroke="#A08B4D" stroke-width="6"></path></g><g transform=" translate(33.5355339050293 291.0136299133301) scale(1.21 1.21) translate(-3.7252379173089643 -5.898460924132795) translate(20.011067810058595 -2.9795913696289062)"><path class="ear" d="M40 14S10-1 5 4s0 30 5 40-5 25 30 20V14z" fill="#ad6453" stroke="#000" stroke-width="6"></path></g><g transform=" translate(323.5355339050293 291.0136299133301) scale(-1.21 1.21) translate(-39.20369427263244 -5.898460924132795) translate(20.011067810058595 -2.9795913696289062)"><path class="ear" d="M40 14S10-1 5 4s0 30 5 40-5 25 30 20V14z" fill="#ad6453" stroke="#000" stroke-width="6"></path></g><g transform=" scale(0.8520000000000001 1) translate(34.74178403755866 0.0)"><path class="head" d="M200 100c100 0 150 60 150 200 0 70-50 200-150 200S50 370 50 300c0-140 50-200 150-200z" fill="#ad6453" stroke="#000" stroke-width="6"></path><path class="faceShave" d="M200 410c30 0 50 10 50 10 30 0 90-15 90-120h10c0 70-50 200-150 200S50 370 50 300h10c0 105 60 120 90 120 0 0 20-10 50-10z" fill="rgba(0,0,0,0)"></path><path class="headShave" d="M60 300H50c0-140 50-200 150-200s150 60 150 200h-10v-10c0-5-10-20-15-25s-5-55-15-65c-40-40-60 0-110 0s-70-40-110 0c-10 10-10 60-15 65s-15 20-15 25v10z" fill="rgba(0,0,0,0)"></path></g><g><path class="eyeline2" d="M300 320s5 5 10 5m-13.25-2.47S300 335 305 335m-205-15s-5 5-10 5m13.25-2.47S100 335 95 335" fill="none" stroke="#000" stroke-width="2"></path></g><g transform=" translate(104.75510025024414 287.0) rotate(-3.0 35.24489974975586 23.0)"><style></style><g id="eye8" stroke="#000" stroke-width="5"><path id="Shape 10" d="M67 35c0-4 6-32-24-32S3 15 3 23s12 20 24 20 40-4 40-8z" fill="#fff"></path><path id="Shape 10" d="M39 29c-3.32 0-6-2.68-6-6s2.68-6 6-6 6 2.68 6 6-2.68 6-6 6z" fill="#000"></path></g></g><g transform=" translate(224.75510025024414 287.0) rotate(3.0 35.24489974975586 23.0) scale(-1 1) translate(-70.48979949951172 0.0)"><style></style><g id="eye8" stroke="#000" stroke-width="5"><path id="Shape 10" d="M67 35c0-4 6-32-24-32S3 15 3 23s12 20 24 20 40-4 40-8z" fill="#fff"></path><path id="Shape 10" d="M39 29c-3.32 0-6-2.68-6-6s2.68-6 6-6 6 2.68 6 6-2.68 6-6 6z" fill="#000"></path></g></g><g transform=" translate(101.22222137451172 256.0) rotate(-6.48 38.77777862548828 9.0)"><path d="M73 13c8-8 0-12 0-12S45 5 37 5H1s20 12 40 12c12 0 28 0 32-4z" fill="#272421" stroke="#000"></path></g><g transform=" translate(221.22222137451172 256.0) rotate(6.48 38.77777862548828 9.0) scale(-1 1) translate(-77.55555725097656 0.0)"><path d="M73 13c8-8 0-12 0-12S45 5 37 5H1s20 12 40 12c12 0 28 0 32-4z" fill="#272421" stroke="#000"></path></g><g transform=" translate(169.0 428.0) scale(-1 1) translate(-62.0 0.0)"><style></style><path id="side" d="M1 22l60-10L51 2" fill="none" stroke="#000" stroke-width="5"></path></g><g transform=" translate(0.0 -12.5) scale(-0.91 0.91) translate(-419.78021978021974 37.829670329670314)"><path class="nose" d="M175 370c-20 0-5 25 5 15 5-5 15 10 20 10s15-15 20-10c10 10 25-15 5-15" fill="#ad6453" stroke="#000" stroke-width="5"></path></g><g transform=" scale(-1 1) translate(-400.0 0.0) scale(0.8520000000000001 1) translate(34.74178403755866 0.0)"><path id="buzz-01" d="M60 310L50 310C50 310 50 305 50 300C50 160 100 100 200 100C300 100 350 160 350 300C350 305 350 310 350 310L340 310C340 310 340 295 340 290C340 285 330 270 325 265C320 260 320 210 310 200C270 160 250 200 200 200C150 200 130 160 90 200C80 210 80 260 75 265C70 270 60 285 60 290C60 295 60 310 60 310Z" fill="#272421" stroke="#000" stroke-width="4"></path></g></svg>
